<svg width="26" height="26" viewBox="0 0 26 26" fill="none" xmlns="http://www.w3.org/2000/svg">
<path d="M12.4679 9.97633C11.3889 11.0647 10.3662 12.078 9.33416 13.11C9.27787 13.0631 9.21219 12.9974 9.14652 12.9318C8.07693 11.8622 7.00734 10.802 5.94714 9.72299C5.82517 9.60102 5.70321 9.55411 5.53433 9.55411C4.60548 9.55411 3.67663 9.55411 2.74778 9.55411C2.53198 9.55411 2.37248 9.48845 2.21298 9.33834C1.58436 8.70034 0.946366 8.0811 0.327132 7.43372C0.205162 7.31175 0.12072 7.10531 0.12072 6.93643C0.101955 5.90438 0.12071 4.87233 0.111328 3.84027C0.111328 3.62448 0.148861 3.43683 0.364655 3.34301C0.599213 3.23981 0.75871 3.36177 0.918209 3.51189C1.75324 4.3563 2.60704 5.19133 3.43268 6.03574C3.56403 6.17647 3.70477 6.20463 3.88303 6.22339C4.35215 6.27969 4.70867 6.13895 4.98076 5.75428C4.99953 5.72613 5.02767 5.69797 5.05582 5.6792C5.5437 5.37897 5.59061 4.90987 5.52494 4.41261C5.51556 4.31879 5.44988 4.22495 5.38421 4.15927C4.5398 3.30548 3.69538 2.46108 2.84159 1.61667C2.68209 1.45717 2.54136 1.29765 2.64457 1.04433C2.74777 0.800388 2.96357 0.791016 3.18875 0.791016C4.20204 0.791016 5.21533 0.791025 6.238 0.800407C6.40689 0.800407 6.6133 0.884849 6.73527 1.00682C7.38265 1.63544 8.02064 2.27341 8.64926 2.92079C8.76184 3.04277 8.84629 3.24918 8.85567 3.41806C8.87443 4.34691 8.86505 5.27576 8.85567 6.20461C8.85567 6.37349 8.90257 6.49547 9.02454 6.61744C10.0941 7.67764 11.1637 8.74723 12.2333 9.81682C12.299 9.88249 12.4022 9.92002 12.4679 9.95755V9.97633Z" fill="white"/>
<path d="M12.8156 16.6005C13.8477 15.5684 14.8704 14.5457 15.9024 13.5137C15.9587 13.57 16.0244 13.6263 16.0901 13.7013C17.1503 14.7615 18.2199 15.8217 19.2707 16.8913C19.402 17.0321 19.5428 17.079 19.721 17.0696C20.6311 17.0696 21.5412 17.0696 22.4513 17.0696C22.6765 17.0696 22.8454 17.1353 23.0049 17.2948C23.6241 17.9234 24.2527 18.552 24.8813 19.1712C25.0408 19.3307 25.1065 19.4996 25.1065 19.7248C25.1065 20.7381 25.1065 21.7607 25.1065 22.774C25.1065 22.9992 25.069 23.1963 24.8438 23.2901C24.6092 23.3839 24.4497 23.2619 24.2996 23.1024C23.474 22.2674 22.6389 21.4511 21.8133 20.6161C21.6726 20.466 21.5224 20.4191 21.316 20.4003C20.8657 20.3534 20.5185 20.4754 20.2652 20.8413C20.2183 20.9069 20.162 20.9632 20.0963 21.0101C19.7492 21.2541 19.646 21.5731 19.6741 21.9953C19.6929 22.2299 19.7492 22.3988 19.9087 22.5583C20.7437 23.3745 21.56 24.2002 22.3762 25.0258C22.5357 25.1853 22.6577 25.3448 22.5545 25.5794C22.4607 25.8139 22.2637 25.8421 22.0385 25.8421C21.0158 25.8421 19.9931 25.8421 18.9611 25.8327C18.7922 25.8327 18.5858 25.7482 18.4638 25.6263C17.807 24.9977 17.169 24.3596 16.5498 23.7123C16.4372 23.5903 16.3528 23.3839 16.3434 23.215C16.3246 22.3143 16.3246 21.4136 16.3434 20.5035C16.3434 20.269 16.2683 20.1001 16.1088 19.9406C15.058 18.9085 14.0166 17.8577 12.9751 16.8163C12.9095 16.7506 12.8438 16.6849 12.7969 16.6286L12.8156 16.6005Z" fill="white"/>
<path d="M11.7737 16.4787C10.9856 15.6906 10.2444 14.9494 9.4375 14.1425C9.50318 14.105 9.597 14.0768 9.66268 14.0111C12.665 11.0088 15.6674 8.00642 18.6697 5.01346C18.8105 4.87273 18.8761 4.74137 18.8667 4.54434C18.848 4.16905 18.8667 3.79375 18.8667 3.42784C18.8667 3.1839 18.9512 3.02441 19.1764 2.91183C20.5087 2.25506 21.8316 1.58892 23.1545 0.922776C23.4735 0.763276 23.5861 0.782036 23.8488 1.03536C24.2147 1.40127 24.5712 1.76718 24.9371 2.12371C25.1341 2.31136 25.1717 2.50837 25.0403 2.75231C24.3648 4.08461 23.6986 5.41691 23.0419 6.7492C22.9293 6.96499 22.7792 7.07758 22.5259 7.06819C22.1412 7.05881 21.7659 7.06819 21.3812 7.06819C21.203 7.06819 21.081 7.11511 20.9496 7.24646C17.9473 10.2488 14.9449 13.2512 11.952 16.2535C11.8769 16.3286 11.83 16.4224 11.7737 16.4881V16.4787Z" fill="white"/>
<path d="M6.17196 15.8492C7.4761 17.1534 8.78026 18.4481 10.0938 19.7617C10.0656 19.7898 10.0281 19.8367 9.99058 19.8742C8.3299 21.5349 6.66922 23.205 4.99917 24.8656C4.15476 25.7007 3.16023 26.0384 2.0062 25.6913C0.223557 25.1565 -0.442587 22.9985 0.673911 21.4223C0.786499 21.2628 0.908469 21.1221 1.03982 20.9813C2.72864 19.2925 4.40808 17.6037 6.0969 15.9149C6.12505 15.8867 6.16257 15.8586 6.18134 15.8398L6.17196 15.8492Z" fill="white"/>
<path d="M6.82969 15.1747C7.10178 14.9026 7.4114 14.5836 7.7304 14.2834C7.94619 14.0863 8.16198 14.1051 8.38716 14.3397C9.20342 15.1559 10.0197 15.9722 10.8359 16.7884C11.0893 17.0418 11.352 17.3045 11.6053 17.5672C11.8305 17.8017 11.8399 18.0082 11.6053 18.2521C11.3144 18.5523 11.0236 18.8432 10.7421 19.1246C9.42859 17.8111 8.13384 16.507 6.82031 15.1841L6.82969 15.1747Z" fill="white"/>
</svg>
