<svg width="1536" height="910" viewBox="0 0 1536 910" fill="none" xmlns="http://www.w3.org/2000/svg">
<path d="M1535 0H0V909H1535V0Z" fill="#C6F3FD"/>
<path opacity="0.37" d="M1080.55 909.1C1331.59 909.1 1535.1 705.591 1535.1 454.55C1535.1 203.509 1331.59 0 1080.55 0C829.509 0 626 203.509 626 454.55C626 705.591 829.509 909.1 1080.55 909.1Z" fill="white"/>
<g clip-path="url(#clip0_669_9371)">
<path d="M1139.65 414.634C1139.65 370.244 1103.59 334.247 1059.1 334.247C1014.61 334.247 978.398 370.523 978.551 414.913C978.623 436.955 987.593 456.91 1002.06 471.386C1013.32 482.659 1021.56 496.577 1025.73 511.935L1032.22 535.903H1085.02L1091.17 513.195C1095.42 497.495 1103.94 483.334 1115.55 471.935C1130.41 457.351 1139.63 437.063 1139.63 414.616L1139.65 414.634Z" fill="#F4D242"/>
<path d="M1071.31 564H1045.56C1038.27 564 1032.03 558.629 1031.61 551.8L1029.44 525.475L1087.74 525.106L1085.25 551.809C1084.84 558.629 1078.6 564.009 1071.31 564.009V564Z" fill="#59595B"/>
<path d="M1082.5 536.586C1066.21 537.279 1049.87 536.452 1033.59 537.171C1032.14 537.234 1032.25 539.339 1033.67 539.384C1049.97 539.924 1066.31 538.917 1082.61 539.429C1084.44 539.483 1084.36 536.505 1082.5 536.586Z" fill="#808183"/>
<path d="M1082.5 543.64C1066.21 544.333 1049.87 543.505 1033.59 544.225C1032.14 544.288 1032.25 546.393 1033.67 546.438C1049.97 546.978 1066.31 545.97 1082.61 546.492C1084.44 546.546 1084.36 543.568 1082.5 543.649V543.64Z" fill="#808183"/>
<path d="M1065.67 293.384C1065.67 298.566 1062.91 317.189 1059.51 317.189C1056.1 317.189 1053.34 298.566 1053.34 293.384C1053.34 288.202 1056.1 284 1059.51 284C1062.91 284 1065.67 288.202 1065.67 293.384Z" fill="#F4D242"/>
<path d="M1142.48 321.985C1138.54 325.359 1126.19 339.583 1128.41 342.165C1130.62 344.738 1146.58 334.697 1150.51 331.314C1154.45 327.941 1155.84 323.109 1153.62 320.536C1151.4 317.963 1146.41 318.611 1142.48 321.985Z" fill="#F4D242"/>
<path d="M1172.42 405.089C1167.27 405.745 1148.41 405.359 1147.98 401.985C1147.55 398.611 1165.71 393.537 1170.86 392.88C1176.01 392.223 1180.53 394.427 1180.96 397.801C1181.39 401.175 1177.56 404.432 1172.41 405.089H1172.42Z" fill="#F4D242"/>
<path d="M983.59 315.795C987.674 318.989 1000.66 332.637 998.564 335.318C996.464 337.99 980.074 328.678 975.982 325.484C971.898 322.29 970.284 317.531 972.385 314.859C974.485 312.187 979.497 312.601 983.581 315.795H983.59Z" fill="#F4D242"/>
<path d="M944.582 391.773C949.73 392.43 968.589 392.043 969.022 388.669C969.455 385.295 951.289 380.221 946.142 379.565C940.994 378.908 936.469 381.112 936.045 384.486C935.612 387.86 939.444 391.116 944.591 391.773H944.582Z" fill="#F4D242"/>
<path d="M1093.87 455.57C1091.28 453.681 1089.27 451.206 1087.8 448.426C1090.72 444.828 1092.01 439.987 1092.55 435.489C1092.87 432.736 1092.97 429.983 1093 427.212C1093.05 424.549 1092.7 422.282 1090.44 420.617C1088.42 419.133 1085.72 420.473 1084.17 421.913C1082.39 423.568 1081.52 426.285 1080.83 428.543C1079.43 433.105 1079.46 437.999 1080.33 442.65C1080.64 444.27 1081.09 445.862 1081.67 447.41C1080.53 448.301 1079.23 449.011 1077.81 449.47C1073.41 450.874 1070.06 448.345 1068.02 444.603C1067.69 443.991 1067.38 443.334 1067.07 442.66C1067.41 441.733 1067.74 440.806 1068.05 439.897C1069.55 435.444 1070.38 430.793 1070.75 426.114C1071.05 422.246 1071.17 417.621 1067.44 415.327C1066.24 414.589 1064.89 415.147 1064.14 416.191C1058.68 423.739 1058.99 433.753 1061.96 442.318C1061 444.594 1059.88 446.798 1058.64 448.939C1057.27 451.287 1054.66 454.913 1051.5 454.454C1048.55 454.023 1046.2 450.334 1044.73 448.049C1043.66 446.375 1042.81 444.585 1042.15 442.731C1042.53 441.751 1042.87 440.752 1043.2 439.745C1044.46 435.786 1045.15 431.665 1045.49 427.536C1045.76 424.09 1045.87 419.241 1042.1 417.594C1041 417.117 1039.37 417.162 1038.79 418.458C1035.47 425.826 1034.84 433.906 1036.93 441.715C1037 441.976 1037.08 442.246 1037.17 442.507C1034.88 448.328 1031.39 453.717 1027.16 458.305C1025.26 460.365 1028.27 463.397 1030.24 461.382C1034.02 457.54 1037.16 453.177 1039.61 448.435C1040.34 449.803 1041.15 451.117 1042.05 452.358C1044.52 455.768 1047.61 458.962 1052.05 459.205C1056.2 459.43 1059.57 455.948 1061.81 452.925C1062.89 451.476 1063.83 449.893 1064.67 448.247C1066.7 451.476 1069.63 454.041 1073.62 454.598C1077.29 455.111 1080.85 453.978 1083.86 451.962C1085.63 454.958 1087.9 457.648 1090.56 459.87C1093.59 462.399 1097.05 457.918 1093.87 455.597V455.57ZM1066.13 422.039C1066.3 423.964 1065.85 426.339 1065.74 427.509C1065.55 429.641 1065.18 431.755 1064.68 433.843C1064.18 429.74 1064.51 425.529 1066.12 422.039H1066.13ZM1084.95 434.157C1085.1 432.16 1085.63 430.19 1086.3 428.301C1086.6 427.446 1086.98 426.645 1087.47 425.88C1087.51 425.817 1087.68 425.601 1087.85 425.413C1087.88 425.547 1087.93 425.727 1087.94 425.997C1088.2 430.874 1087.79 436.137 1086.27 440.788C1086.08 441.364 1085.86 441.922 1085.6 442.471C1084.96 439.745 1084.74 436.911 1084.95 434.166V434.157Z" fill="white"/>
<path d="M1098.45 443.739C1089.89 469.83 1080.87 495.786 1071.19 521.481C1070.03 524.558 1074.78 526.438 1075.93 523.37C1085.59 497.639 1094.55 471.665 1102.59 445.386C1103.42 442.678 1099.35 441.013 1098.46 443.739H1098.45Z" fill="white"/>
<path d="M1020.55 442.093C1027.38 468.687 1033.77 495.408 1039.45 522.273C1040.12 525.485 1045.14 524.531 1044.46 521.319C1038.73 494.445 1032.3 467.734 1024.91 441.265C1024.16 438.539 1019.83 439.313 1020.54 442.093H1020.55Z" fill="white"/>
</g>
<defs>
<clipPath id="clip0_669_9371">
<rect width="245" height="280" fill="white" transform="translate(936 284)"/>
</clipPath>
</defs>
</svg>
