<svg width="41" height="41" viewBox="0 0 41 41" fill="none" xmlns="http://www.w3.org/2000/svg">
<rect width="41" height="41" fill="white"/>
<path d="M12.0338 33.459C12.6761 33.2075 12.9616 32.6631 12.9616 31.8672V17.809H9.50171V17.1956H12.9616V16.51C12.9616 13.5812 13.7807 11.3415 15.4563 9.6049C16.8124 8.19219 18.9502 7 21.8017 7C23.1578 7 24.4052 7.28943 25.2616 7.72358L28.8609 7.03446L29.0036 7.17917V31.7569C29.0036 32.5528 29.2517 33.1317 29.8941 33.4211C30.3937 33.6382 30.8559 33.6727 31.4983 33.745V33.9966H21.8731V33.745C22.5155 33.7106 22.9437 33.6003 23.3006 33.4211C23.7288 33.1317 23.8716 32.5907 23.8716 31.8672V13.2538C23.3006 13.0023 22.5868 12.3132 22.5868 11.1933C22.5868 10.0735 23.3006 9.38438 23.7628 8.91577C23.4433 8.08538 22.8349 7.39625 21.5876 7.39625C19.6639 7.39625 18.1277 9.56355 18.1277 14.5907V17.1922H21.9785V17.8055H18.1277V31.7224C18.1277 32.4081 18.2704 32.9146 18.7701 33.242C19.1269 33.4935 19.6265 33.6382 20.3403 33.7485V34H10.5009V33.7485C11.1059 33.714 11.5715 33.6417 12.0338 33.459Z" fill="#51BBC5"/>
</svg>
