<svg width="38" height="28" viewBox="0 0 38 28" fill="none" xmlns="http://www.w3.org/2000/svg">
<path d="M0.857422 2.08906C0.885982 2.02242 0.914543 1.95578 0.933583 1.88914C1.23822 0.908592 2.00934 0.318359 3.03748 0.318359C4.76058 0.318359 6.48367 0.318359 8.20677 0.318359C13.4998 0.318359 18.7929 0.318359 24.0859 0.318359C25.5996 0.318359 26.4469 1.17515 26.4469 2.69833C26.4469 6.8014 26.4469 10.895 26.4469 14.998C26.4469 16.4641 25.5806 17.3399 24.1145 17.3399C20.0876 17.3399 16.0607 17.3399 12.0338 17.3399H11.5673V21.5763C11.415 21.4335 11.3198 21.3478 11.2341 21.2621C9.99652 20.0245 8.76844 18.7869 7.52134 17.5589C7.39758 17.4351 7.17863 17.3494 7.00727 17.3494C5.82681 17.3304 4.64634 17.3018 3.46587 17.3494C2.15213 17.4066 1.20966 16.8639 0.857422 15.5692L0.857422 2.09858V2.08906ZM13.3285 6.41109C12.8239 5.89701 12.3384 5.42102 11.8243 4.89742C11.0437 5.67805 10.2535 6.47773 9.42532 7.31548C8.60661 6.49677 7.80695 5.69709 7.05487 4.9355C6.5408 5.44958 6.05528 5.93509 5.51264 6.48724C6.28375 7.24884 7.08342 8.03899 7.94973 8.89578C7.14054 9.69545 6.34087 10.4856 5.56976 11.2472C6.05527 11.7327 6.53127 12.2182 7.04535 12.7323C7.82598 11.9517 8.61613 11.1425 9.44436 10.3142C10.2631 11.1425 11.0627 11.9421 11.8148 12.6942C12.3289 12.1801 12.8144 11.6946 13.357 11.1425C12.5859 10.3809 11.7862 9.59073 10.958 8.77202C11.7577 7.97235 12.5478 7.1822 13.3285 6.41109ZM23.2387 3.52656L16.8984 3.52656V5.61141H23.2387V3.52656ZM23.2291 9.87632V7.78195H16.9079V9.87632H23.2291ZM23.2387 12.0373H16.8984V14.1222H23.2387V12.0373Z" fill="white"/>
<path d="M28.5788 10.9526C30.2352 10.9526 31.8441 10.9526 33.4434 10.9526C33.967 10.9526 34.4811 10.9526 35.0047 10.9526C36.2137 10.9622 37.1467 11.8761 37.1562 13.0756C37.1657 15.9125 37.1657 18.7494 37.1562 21.5768C37.1562 22.7668 36.2328 23.6807 35.0428 23.6998C34.424 23.7093 33.8147 23.7093 33.1959 23.6998C32.9389 23.6998 32.758 23.7664 32.5771 23.9473C31.2729 25.2705 29.9592 26.5748 28.5883 27.9456V23.6998H28.1599C25.5229 23.6998 22.8954 23.6998 20.2584 23.6998C18.8209 23.6998 17.9451 22.8239 17.9355 21.3864C17.9355 20.7486 17.9355 20.1203 17.9355 19.4444H18.3449C20.2774 19.4444 22.2195 19.4444 24.152 19.4444C26.7129 19.4444 28.5597 17.5975 28.5597 15.0462C28.5597 13.8181 28.5597 12.5901 28.5597 11.362C28.5597 11.2382 28.5597 11.105 28.5597 10.9336L28.5788 10.9526Z" fill="white"/>
</svg>
