<svg width="25" height="26" viewBox="0 0 25 26" fill="none" xmlns="http://www.w3.org/2000/svg">
<path fill-rule="evenodd" clip-rule="evenodd" d="M22.3462 5.75568C22.6018 5.95002 22.752 6.25272 22.752 6.57389V18.9067C22.752 19.2185 22.6105 19.5133 22.3673 19.7084C22.1242 19.9035 21.8056 19.9776 21.5013 19.91L3.00205 15.799C2.53183 15.6945 2.19727 15.2775 2.19727 14.7958V11.7126C2.19727 11.2509 2.50511 10.8459 2.94993 10.7223L21.4492 5.58365C21.7586 5.49769 22.0905 5.56133 22.3462 5.75568ZM4.25274 12.4937V13.9714L20.6965 17.6255V7.92602L4.25274 12.4937Z" fill="white"/>
<path fill-rule="evenodd" clip-rule="evenodd" d="M6.37623 15.0382C6.9234 15.1892 7.2446 15.7551 7.09366 16.3023C7.02158 16.5636 7.00167 16.8365 7.03507 17.1055C7.06847 17.3745 7.15452 17.6342 7.28831 17.87C7.4221 18.1057 7.60102 18.3128 7.81483 18.4794C8.02865 18.6459 8.27319 18.7688 8.53448 18.8409C8.79577 18.9129 9.0687 18.9329 9.33769 18.8995C9.60667 18.8661 9.86645 18.78 10.1022 18.6462C10.3379 18.5124 10.545 18.3335 10.7116 18.1197C10.8781 17.9059 11.001 17.6613 11.0731 17.4C11.224 16.8529 11.7899 16.5317 12.3371 16.6826C12.8843 16.8336 13.2055 17.3995 13.0545 17.9467C12.9107 18.4682 12.6655 18.9562 12.333 19.383C12.0005 19.8097 11.5873 20.1668 11.1168 20.4338C10.6463 20.7009 10.1278 20.8726 9.59096 20.9393C9.0541 21.0059 8.50937 20.9662 7.98787 20.8223C7.46637 20.6785 6.97831 20.4333 6.55156 20.1008C6.12481 19.7683 5.76773 19.3551 5.5007 18.8846C5.23367 18.4141 5.06192 17.8956 4.99526 17.3588C4.9286 16.8219 4.96834 16.2772 5.1122 15.7557C5.26314 15.2085 5.82907 14.8873 6.37623 15.0382Z" fill="white"/>
</svg>
