<svg width="152" height="29" viewBox="0 0 152 29" fill="none" xmlns="http://www.w3.org/2000/svg">
<g clip-path="url(#clip0_632_240)">
<path d="M2.59618 26.9824C3.25563 26.7279 3.54693 26.1837 3.54693 25.3818V11.2366H0V10.6192H3.54693V9.92868C3.54693 6.98508 4.42407 4.69385 6.1079 3.01998C7.49722 1.60069 10.1318 0.365967 13.349 0.365967C17.7379 0.365967 19.9339 2.29442 19.9339 4.51246C19.9339 5.60398 19.0568 7.20466 17.2993 7.20466C15.8364 7.20466 14.6295 6.36772 14.6295 4.84023C14.6295 3.8601 15.1417 2.94997 15.289 2.00483C15.289 1.38747 14.6679 0.770115 13.1666 0.770115C10.644 0.770115 8.85133 3.46231 8.85133 8.62395V10.6224H14.0821C16.022 10.5874 18.1412 10.441 19.8603 10.2596L20.0075 10.406V25.2417C20.0075 26.0055 20.3373 26.5878 20.9935 26.8774C21.5057 27.132 21.9795 27.2052 22.5653 27.2784V27.533H12.6544V27.2784C13.3138 27.2434 13.7524 27.132 14.0821 26.9156C14.5591 26.626 14.7031 26.1169 14.7031 25.3881V13.0632C14.6679 12.2995 14.447 11.6821 13.9348 11.2461H8.85133V25.2449C8.85133 25.8623 8.99859 26.2983 9.32831 26.591C9.69325 26.992 10.2791 27.1734 11.0826 27.2816V27.5362H1.02439V27.2816C1.64542 27.2466 2.1224 27.1734 2.59618 26.992V26.9824ZM25.7505 25.1622C26.666 24.1089 28.9677 21.3817 29.9921 20.0706C29.1886 18.8358 25.8209 13.4896 25.1263 12.5063C24.2491 11.1602 23.4072 10.9056 22.6037 10.8706V10.616H32.5146V10.8706C31.7463 10.9056 30.5747 11.052 30.5043 11.3798C30.4307 11.5994 30.5779 11.889 30.7604 12.1785C31.0165 12.6145 32.9916 15.8859 33.7599 17.0156C34.4194 16.1787 36.3209 13.671 36.9771 12.7259C37.2332 12.3981 37.3805 12.0703 37.3421 11.8158C37.2684 11.3066 36.1 11.052 34.7075 10.8356V10.616H41.1099V10.8356C39.282 11.1634 38.5489 11.9271 37.707 12.8723C37.0475 13.601 35.0724 16.0705 34.0128 17.4166C34.8163 18.6513 38.4753 24.4716 39.1699 25.4518C39.9382 26.5783 40.3416 27.0875 41.5836 27.2689V27.5234H31.5607V27.2689C32.4026 27.1957 33.7919 26.9411 33.7919 26.5401C33.7919 26.3587 33.6095 25.9959 33.3886 25.595C33.1325 25.0858 31.0837 21.7413 30.2418 20.5034C29.6207 21.2671 27.207 24.2489 26.5828 25.194C26.3267 25.5218 26.0706 25.9578 26.0706 26.2123C26.0706 26.8297 27.5336 27.1575 28.814 27.2657V27.5203H22.45V27.3007C24.1691 26.9729 24.9374 26.136 25.7409 25.1558L25.7505 25.1622ZM43.0882 27.0556C43.7477 26.8011 44.0038 26.3269 44.0038 25.5282V3.63734C44.0038 2.8004 43.674 1.96346 43.053 1.60069C42.5408 1.27291 41.1515 1.09152 40.492 1.05652V0.801937L49.1609 0.400972L49.3082 0.547356V25.3436C49.3082 26.1423 49.529 26.6897 50.1117 26.9443C50.6239 27.1638 51.2833 27.1988 51.8659 27.272V27.5266H41.5164V27.272C42.1022 27.237 42.6144 27.1988 43.0882 27.0525V27.0556ZM51.4658 19.0904C51.4658 13.5278 55.5249 10.1451 60.9765 10.1451C66.4282 10.1451 70.4137 13.5628 70.4137 18.944C70.4137 24.3253 66.7547 28.0326 60.7941 28.0326C56.0019 28.0326 51.4658 24.9776 51.4658 19.0872V19.0904ZM64.5587 18.9472C64.5587 14.7657 63.9377 10.5492 61.0118 10.5492C57.865 10.5492 57.3176 15.0203 57.3176 18.8772C57.3176 23.3133 57.865 27.6762 60.9765 27.6762C64.0881 27.6762 64.5619 23.4215 64.5619 18.9504L64.5587 18.9472ZM71.9855 19.0172C71.9855 14.1102 75.6797 10.1451 81.2754 10.1451C85.3345 10.1451 87.3097 12.0353 87.3097 14.3998C87.3097 15.7809 86.3589 16.9456 84.6751 16.9456C83.2121 16.9456 82.0405 16.1818 82.0405 14.508C82.0405 13.2351 82.9912 12.1817 83.1001 11.5994C82.9528 10.982 82.2966 10.546 81.3074 10.546C79.3323 10.546 77.8341 13.3464 77.8341 18.6895C77.8341 24.0325 79.6268 26.3237 82.3702 26.3237C84.8928 26.3237 86.5766 25.0158 87.6746 22.871L88.078 23.1255C86.8711 25.8527 84.3101 28.0326 80.7632 28.0326C75.0586 28.0326 71.9855 24.688 71.9855 19.0141V19.0172ZM89.5793 23.9625C89.5793 21.0889 91.2631 20.1088 93.091 19.4182C95.2486 18.6194 98.7252 17.9639 99.7848 17.2733V14.3648C99.7848 13.2732 99.7848 10.546 97.4447 10.546C96.3851 10.546 95.7256 10.9088 95.4343 11.2366C95.5079 11.9653 96.0938 13.4196 96.0938 14.508C96.0938 15.3449 94.9958 16.5796 93.1679 16.5796C91.34 16.5796 90.6805 15.2717 90.6805 14.107C90.6805 11.7426 94.666 10.1451 97.704 10.1451C101.545 10.1451 105.166 10.7624 105.166 15.5995C105.166 18.8708 104.945 23.1637 104.945 24.3634C104.945 25.054 105.384 26.1073 106.373 26.1073C107.506 26.1073 108.166 24.5066 108.201 22.836H108.678C108.569 25.9641 107.106 27.9626 104.106 27.9626C101.584 27.9626 100.595 27.0175 99.9 25.5632H99.7912C98.5491 26.9093 97.195 28.0358 94.5252 28.0358C91.2343 28.0358 89.5889 26.3619 89.5889 23.9625H89.5793ZM99.6759 24.9808L99.8232 17.7825C99.0901 18.0721 98.3954 18.3267 97.8128 18.6545C96.129 19.5646 95.143 20.7993 95.143 23.0905C95.143 25.2354 95.9465 26.2887 97.227 26.2887C98.3602 26.2887 99.1285 25.7796 99.6791 24.9808H99.6759ZM109.99 27.0556C110.65 26.8011 110.906 26.3269 110.906 25.5282V3.63734C110.906 2.8004 110.576 1.96346 109.955 1.60069C109.443 1.27291 108.053 1.09152 107.394 1.05652V0.801937L116.063 0.400972L116.21 0.547356V25.3436C116.21 26.1423 116.431 26.6897 117.014 26.9443C117.526 27.1638 118.185 27.1988 118.768 27.272V27.5266H108.418V27.272C109.004 27.237 109.516 27.1988 109.99 27.0525V27.0556Z" fill="#73C3CD"/>
<path d="M133.481 17.7889C133.481 17.0506 132.991 16.5414 132.325 16.5414C131.659 16.5414 131.157 17.0633 131.157 17.7889C131.157 18.5144 131.646 19.0363 132.325 19.0363C133.004 19.0363 133.481 18.5144 133.481 17.7889ZM143.408 17.6807C143.408 17.0092 142.918 16.5414 142.284 16.5414C141.65 16.5414 141.151 17.0092 141.151 17.6902C141.151 18.3712 141.64 18.8295 142.284 18.8295C142.927 18.8295 143.408 18.3521 143.408 17.6807ZM145.043 19.7428C145.043 21.4676 144.323 22.6832 142.162 22.6832C141.301 22.6832 140.626 22.5305 139.969 22.174L140.35 20.7961C140.799 21.0571 141.388 21.2639 141.977 21.2639C142.905 21.2639 143.372 20.8088 143.372 20.2551V19.7682L143.35 19.7587C142.991 20.1278 142.498 20.3442 141.877 20.3442C140.437 20.3442 139.412 19.2368 139.412 17.7316C139.412 16.2264 140.437 15.0426 141.778 15.0426C142.358 15.0426 142.902 15.2494 143.305 15.6599H143.327V15.138H145.04V19.746L145.043 19.7428ZM139.23 16.866C139.067 16.8565 138.913 16.8437 138.827 16.8437C138.02 16.8437 137.604 17.3529 137.604 18.0466V20.4333H135.901V15.1317H137.604V15.87H137.626C138.02 15.329 138.574 15.0362 139.163 15.0362H139.23V16.8692V16.866ZM135.203 17.7889C135.203 19.415 134.002 20.532 132.322 20.532C130.641 20.532 129.431 19.3927 129.431 17.7889C129.431 16.185 130.599 15.033 132.322 15.033C134.044 15.033 135.203 16.15 135.203 17.7889ZM134.646 10.7465C133.961 12.0863 132.312 12.6177 130.964 11.9367C129.617 11.2557 129.082 9.61681 129.767 8.27708C130.452 6.93734 132.101 6.4059 133.449 7.08691C134.796 7.76791 135.331 9.40678 134.646 10.7465ZM151.823 14.5016C151.823 6.49501 145.293 0 137.236 0C129.178 0 122.648 6.49182 122.648 14.5016C122.648 22.5114 129.178 29.0032 137.236 29.0032C145.293 29.0032 151.823 22.5114 151.823 14.5016Z" fill="black"/>
</g>
<defs>
<clipPath id="clip0_632_240">
<rect width="151.824" height="29" fill="white"/>
</clipPath>
</defs>
</svg>
