<svg width="666" height="518" viewBox="0 0 666 518" fill="none" xmlns="http://www.w3.org/2000/svg">
<path d="M456.182 126.733C472.607 195.518 430.161 264.594 361.375 281.019C292.59 297.444 223.514 254.998 207.089 186.213C190.664 117.428 233.11 48.3512 301.895 31.9262C370.68 15.5012 439.757 57.9475 456.182 126.733Z" fill="white" fill-opacity="0.25" stroke="white" stroke-width="3.40893"/>
<path d="M444.721 129.392C459.643 191.882 421.081 254.637 358.591 269.559C296.1 284.481 233.345 245.919 218.423 183.429C203.501 120.938 242.063 58.1833 304.554 43.2614C367.044 28.3395 429.799 66.9014 444.721 129.392Z" fill="#73C3CD" stroke="white" stroke-width="1.27835"/>
<path d="M249.732 154.29L251.805 168.035L259.223 139.618H265.113L272.477 167.817L274.767 154.29L277.604 139.618H284.258L275.913 176.707H269.204L262.059 149.108L254.859 176.707H248.15L239.805 139.618H246.896L249.732 154.29ZM312.303 170.435V176.707H290.813V139.618H311.758V145.89H297.358V154.781H310.121V161.053H297.358V170.435H312.303ZM335.993 162.035C335.993 164.689 336.574 166.871 337.738 168.58C338.902 170.253 340.811 171.089 343.465 171.089C344.556 171.089 345.683 170.944 346.847 170.653C348.047 170.362 349.519 169.871 351.265 169.18L353.283 174.853C351.319 175.725 349.501 176.343 347.828 176.707C346.192 177.071 344.61 177.252 343.083 177.252C340.029 177.252 337.465 176.598 335.393 175.289C333.356 173.98 331.829 172.18 330.811 169.889C329.793 167.598 329.284 164.98 329.284 162.035V154.235C329.284 151.29 329.793 148.672 330.811 146.381C331.829 144.09 333.356 142.309 335.393 141.036C337.465 139.727 340.029 139.072 343.083 139.072C344.574 139.072 346.119 139.254 347.719 139.618C349.319 139.945 351.065 140.527 352.956 141.363L350.937 147.145C349.265 146.454 347.865 145.963 346.738 145.672C345.61 145.381 344.52 145.236 343.465 145.236C340.811 145.236 338.902 146.072 337.738 147.745C336.574 149.417 335.993 151.581 335.993 154.235V162.035ZM379.855 176.707L377.564 169.453H364.856L362.565 176.707H356.074L368.456 139.618H374.237L386.673 176.707H379.855ZM368.401 158.108L366.71 163.453H375.655L373.964 158.108L371.237 148.726L368.401 158.108ZM392.868 176.707V139.618H398.868C401.741 143.363 404.468 147.327 407.049 151.508C409.631 155.653 411.976 159.926 414.085 164.326L413.595 153.254V139.618H419.867V176.707H413.867C411.54 172.125 409.122 167.526 406.613 162.908C404.14 158.253 401.504 153.872 398.704 149.763L399.141 162.526V176.707H392.868Z" fill="white"/>
<path d="M5.28614 244.04V249.531H2.65051L2.65051 234.596H7.63624C9.1444 234.596 10.3012 234.984 11.1065 235.76C11.9265 236.522 12.3364 237.546 12.3364 238.835V239.779C12.3364 240.629 12.1534 241.375 11.7874 242.02C11.4213 242.664 10.8942 243.154 10.206 243.491C11.4066 245.541 12.4316 247.555 13.2809 249.531H10.2719C9.53975 247.701 8.66853 245.871 7.6582 244.04H5.28614ZM7.63624 237.012H5.28614V241.624H7.63624C8.2805 241.624 8.77102 241.463 9.1078 241.141C9.45921 240.804 9.63492 240.35 9.63492 239.779V238.835C9.63492 238.279 9.45921 237.839 9.1078 237.517C8.77102 237.18 8.2805 237.012 7.63624 237.012ZM24.6882 247.005V249.531H16.0346V234.596H24.4686V237.122H18.6702V240.702H23.8097V243.228H18.6702V247.005H24.6882ZM27.8099 249.531V234.596H32.7298C34.2965 234.596 35.4679 234.991 36.2439 235.782C37.0346 236.573 37.43 237.627 37.43 238.945V240.109C37.43 241.427 37.0346 242.488 36.2439 243.294C35.4679 244.084 34.2965 244.48 32.7298 244.48H30.4456V249.531H27.8099ZM32.7298 237.122H30.4456V241.954H32.7298C33.374 241.954 33.8646 241.793 34.2013 241.471C34.5527 241.148 34.7285 240.695 34.7285 240.109V238.945C34.7285 238.374 34.5527 237.927 34.2013 237.605C33.8646 237.283 33.374 237.122 32.7298 237.122ZM50.9863 240.482V243.623C50.9863 245.527 50.5104 247.027 49.5587 248.126C48.6069 249.209 47.2159 249.751 45.3856 249.751C43.5406 249.751 42.1423 249.209 41.1905 248.126C40.2534 247.027 39.7849 245.527 39.7849 243.623V240.482C39.7849 238.579 40.2534 237.085 41.1905 236.002C42.1423 234.918 43.5406 234.376 45.3856 234.376C47.2159 234.376 48.6069 234.918 49.5587 236.002C50.5104 237.085 50.9863 238.579 50.9863 240.482ZM48.2848 240.482C48.2848 239.282 48.0505 238.381 47.5819 237.781C47.1134 237.166 46.3813 236.858 45.3856 236.858C44.3899 236.858 43.6578 237.166 43.1892 237.781C42.7207 238.381 42.4864 239.282 42.4864 240.482V243.623C42.4864 244.824 42.7207 245.732 43.1892 246.347C43.6578 246.962 44.3899 247.269 45.3856 247.269C46.3813 247.269 47.1134 246.962 47.5819 246.347C48.0505 245.732 48.2848 244.824 48.2848 243.623V240.482ZM57.1064 244.04V249.531H54.4708V234.596H59.4565C60.9647 234.596 62.1214 234.984 62.9267 235.76C63.7467 236.522 64.1567 237.546 64.1567 238.835V239.779C64.1567 240.629 63.9737 241.375 63.6076 242.02C63.2416 242.664 62.7144 243.154 62.0262 243.491C63.2269 245.541 64.2519 247.555 65.1011 249.531H62.0921C61.36 247.701 60.4888 245.871 59.4785 244.04H57.1064ZM59.4565 237.012H57.1064V241.624H59.4565C60.1008 241.624 60.5913 241.463 60.9281 241.141C61.2795 240.804 61.4552 240.35 61.4552 239.779V238.835C61.4552 238.279 61.2795 237.839 60.9281 237.517C60.5913 237.18 60.1008 237.012 59.4565 237.012ZM66.0758 237.122V234.596H77.0575V237.122H72.8845V249.531H70.2488V237.122H66.0758ZM86.4483 249.531H83.8127V234.596H86.4483V249.531ZM88.79 237.122V234.596H99.7718V237.122H95.5987V249.531H92.9631V237.122H88.79Z" fill="white"/>
<path d="M99.8119 175.489C99.8119 202.676 77.7784 224.699 50.5954 224.699C23.4125 224.699 1.37891 202.662 1.37891 175.489C1.37891 148.316 23.4125 126.266 50.5954 126.266C77.7784 126.266 99.8119 148.302 99.8119 175.489Z" fill="white" fill-opacity="0.25" stroke="white" stroke-width="1.70447" stroke-miterlimit="10"/>
<path d="M18.0566 156.249C18.1073 156.131 18.1579 156.013 18.1916 155.895C18.7315 154.157 20.0981 153.111 21.9202 153.111C24.9739 153.111 28.0276 153.111 31.0813 153.111C40.4618 153.111 49.8423 153.111 59.2228 153.111C61.9054 153.111 63.4069 154.63 63.4069 157.329C63.4069 164.601 63.4069 171.855 63.4069 179.127C63.4069 181.725 61.8716 183.277 59.2734 183.277C52.1368 183.277 45.0002 183.277 37.8637 183.277H37.0369V190.785C36.767 190.532 36.5983 190.38 36.4465 190.228C34.2532 188.035 32.0768 185.842 29.8666 183.665C29.6473 183.446 29.2592 183.294 28.9556 183.294C26.8635 183.26 24.7715 183.21 22.6794 183.294C20.3512 183.395 18.6809 182.434 18.0566 180.139V156.266V156.249ZM40.1582 163.909C39.264 162.998 38.4035 162.154 37.4925 161.226C36.109 162.61 34.7087 164.027 33.2409 165.512C31.7899 164.061 30.3728 162.644 29.0399 161.294C28.1289 162.205 27.2684 163.065 26.3067 164.044C27.6733 165.394 29.0905 166.794 30.6258 168.312C29.1917 169.73 27.7746 171.13 26.408 172.48C27.2684 173.34 28.112 174.201 29.023 175.112C30.4065 173.728 31.8068 172.294 33.2746 170.826C34.7256 172.294 36.1428 173.711 37.4756 175.044C38.3867 174.133 39.2471 173.273 40.2088 172.294C38.8422 170.944 37.425 169.544 35.9572 168.093C37.3744 166.676 38.7747 165.276 40.1582 163.909ZM57.7213 158.797H46.4849V162.492H57.7213V158.797ZM57.7044 170.05V166.338H46.5018V170.05H57.7044ZM57.7213 173.88H46.4849V177.575H57.7213V173.88Z" fill="white"/>
<path d="M67.1864 171.958C70.122 171.958 72.9733 171.958 75.8077 171.958C76.7356 171.958 77.6467 171.958 78.5746 171.958C80.7173 171.974 82.3707 173.594 82.3876 175.72C82.4044 180.748 82.4044 185.775 82.3876 190.786C82.3876 192.895 80.751 194.515 78.6421 194.548C77.5455 194.565 76.4657 194.565 75.3691 194.548C74.9135 194.548 74.593 194.666 74.2724 194.987C71.961 197.332 69.6328 199.644 67.2033 202.073V194.548H66.4441C61.7707 194.548 57.1142 194.548 52.4408 194.548C49.8933 194.548 48.3411 192.996 48.3242 190.449C48.3242 189.318 48.3242 188.205 48.3242 187.007H49.0497C52.4746 187.007 55.9163 187.007 59.3412 187.007C63.8796 187.007 67.1527 183.734 67.1527 179.212C67.1527 177.036 67.1527 174.859 67.1527 172.683C67.1527 172.464 67.1527 172.228 67.1527 171.924L67.1864 171.958Z" fill="white"/>
<path d="M560.94 234.598H563.641V244.174C563.641 245.14 563.854 245.902 564.278 246.458C564.703 247 565.384 247.271 566.321 247.271C567.258 247.271 567.939 247 568.363 246.458C568.788 245.902 569 245.14 569 244.174V234.598H571.702V244.174C571.702 245.858 571.255 247.212 570.362 248.237C569.469 249.248 568.122 249.753 566.321 249.753C564.505 249.753 563.151 249.248 562.258 248.237C561.379 247.212 560.94 245.858 560.94 244.174V234.598ZM578.741 247.315C580.439 247.315 581.289 246.685 581.289 245.426C581.289 244.914 581.157 244.511 580.893 244.218C580.644 243.925 580.176 243.669 579.488 243.449L577.687 242.856C575.534 242.153 574.458 240.74 574.458 238.617C574.458 237.387 574.839 236.377 575.6 235.586C576.376 234.781 577.584 234.378 579.224 234.378C579.912 234.378 580.593 234.459 581.267 234.62C581.94 234.766 582.658 235.008 583.419 235.345L582.606 237.607C581.904 237.329 581.303 237.131 580.805 237.014C580.322 236.882 579.824 236.816 579.312 236.816C578.638 236.816 578.104 236.941 577.709 237.19C577.328 237.424 577.137 237.856 577.137 238.486C577.137 238.954 577.269 239.342 577.533 239.65C577.811 239.942 578.265 240.191 578.895 240.396L580.696 240.989C581.779 241.355 582.592 241.89 583.134 242.593C583.69 243.281 583.968 244.196 583.968 245.338C583.968 246.656 583.551 247.725 582.716 248.545C581.882 249.35 580.571 249.753 578.785 249.753C578.082 249.753 577.35 249.672 576.588 249.511C575.842 249.336 575.022 249.043 574.128 248.633L574.941 246.37C575.761 246.722 576.457 246.971 577.028 247.117C577.613 247.249 578.184 247.315 578.741 247.315ZM595.512 247.007V249.533H586.858V234.598H595.292V237.124H589.494V240.704H594.633V243.23H589.494V247.007H595.512ZM605.908 234.598L610.081 244.811L614.232 234.598H617.109V249.533H614.583V243.823L614.913 238.595L611.201 247.776H608.851L605.227 238.573L605.556 243.823V249.533H603.03V234.598H605.908ZM629.894 247.007V249.533H621.24V234.598H629.674V237.124H623.876V240.704H629.016V243.23H623.876V247.007H629.894ZM633.016 249.533V234.598H638.067C639.854 234.598 641.216 235.096 642.153 236.092C643.09 237.087 643.558 238.551 643.558 240.484V243.625C643.558 245.572 643.09 247.044 642.153 248.04C641.216 249.035 639.854 249.533 638.067 249.533H633.016ZM637.958 237.124H635.651V247.007H637.958C638.997 247.007 639.737 246.751 640.176 246.239C640.63 245.726 640.857 244.855 640.857 243.625V240.484C640.857 239.269 640.63 238.405 640.176 237.893C639.737 237.38 638.997 237.124 637.958 237.124ZM649.679 249.533H647.043V234.598H649.679V249.533ZM661.751 249.533L660.828 246.612H655.711L654.788 249.533H652.174L657.16 234.598H659.488L664.496 249.533H661.751ZM657.138 242.044L656.457 244.196H660.059L659.378 242.044L658.28 238.266L657.138 242.044Z" fill="white"/>
<path d="M661.494 172.934C661.494 200.121 639.46 222.144 612.277 222.144C585.094 222.144 563.061 200.107 563.061 172.934C563.061 145.761 585.094 123.711 612.277 123.711C639.46 123.711 661.494 145.748 661.494 172.934Z" fill="white" fill-opacity="0.25" stroke="white" stroke-width="1.70447" stroke-miterlimit="10"/>
<path d="M609.064 145.466C609.998 144.57 611.142 143.788 612.553 143.483C616.519 142.606 619.626 145.999 618.54 149.965C618.063 151.719 616.995 153.13 615.775 154.426C613.888 156.428 611.714 158.068 609.35 159.46C609.14 159.574 608.778 159.631 608.587 159.517C605.556 157.687 602.753 155.589 600.656 152.672C599.493 151.071 598.826 149.298 599.226 147.258C599.836 144.207 602.887 142.53 605.937 143.673C607.024 144.074 607.977 144.798 609.083 145.447L609.064 145.466Z" fill="white"/>
<path d="M628.128 158.392C627.48 158.392 626.946 158.392 626.393 158.392C625.039 158.354 624.162 157.515 624.143 156.162C624.124 152.615 624.124 149.088 624.143 145.542C624.143 144.189 625.058 143.35 626.393 143.35C631.56 143.35 636.707 143.35 641.874 143.35C643.228 143.35 644.143 144.246 644.143 145.618C644.143 149.107 644.143 152.615 644.143 156.104C644.143 157.496 643.247 158.392 641.836 158.392C638.881 158.392 635.926 158.392 632.99 158.392C632.494 158.392 632.132 158.545 631.807 158.907C631.045 159.746 630.263 160.566 629.443 161.367C629.234 161.576 628.795 161.767 628.566 161.691C628.357 161.614 628.166 161.157 628.147 160.871C628.09 160.089 628.128 159.308 628.128 158.411V158.392ZM634.038 155.38C635.792 155.38 637.527 155.38 639.281 155.38C639.548 155.38 639.815 155.38 640.063 155.304C640.597 155.17 640.864 154.77 640.826 154.236C640.787 153.702 640.482 153.359 639.91 153.283C639.777 153.283 639.644 153.283 639.51 153.283C635.869 153.283 632.227 153.283 628.566 153.283C628.414 153.283 628.261 153.283 628.109 153.321C627.594 153.416 627.232 153.798 627.308 154.274C627.365 154.636 627.67 155.018 627.956 155.285C628.128 155.437 628.49 155.399 628.776 155.399C630.53 155.399 632.265 155.399 634.019 155.399L634.038 155.38ZM634.134 146.457C632.284 146.457 630.416 146.457 628.566 146.457C628.071 146.457 627.651 146.553 627.403 147.029C627.003 147.811 627.575 148.574 628.624 148.574C632.246 148.574 635.869 148.574 639.491 148.574C640.349 148.574 640.864 148.154 640.845 147.487C640.845 146.839 640.349 146.476 639.51 146.476C637.718 146.476 635.926 146.476 634.134 146.476V146.457ZM634.095 151.967C635.868 151.967 637.623 151.967 639.396 151.967C639.663 151.967 640.006 152.005 640.158 151.853C640.444 151.586 640.768 151.205 640.807 150.842C640.864 150.366 640.52 149.984 640.006 149.889C639.777 149.851 639.529 149.851 639.281 149.851C635.811 149.851 632.341 149.851 628.871 149.851C628.624 149.851 628.395 149.851 628.147 149.889C627.384 150.023 627.003 150.919 627.518 151.491C627.766 151.758 628.223 151.929 628.604 151.948C630.435 151.986 632.265 151.967 634.114 151.967H634.095Z" fill="white"/>
<path d="M626.414 175.151C626.414 170.213 630.399 166.266 635.375 166.285C640.237 166.304 644.183 170.289 644.183 175.17C644.183 180.07 640.199 184.035 635.28 184.035C630.38 184.035 626.414 180.051 626.414 175.151ZM632.248 175.151C632.248 176.352 632.248 177.553 632.248 178.754C632.248 179.46 632.42 179.555 633.011 179.212C635.108 178.011 637.205 176.79 639.302 175.57C639.874 175.227 639.874 175.055 639.302 174.712C637.186 173.492 635.07 172.253 632.954 171.052C632.439 170.747 632.248 170.861 632.248 171.471C632.248 172.691 632.248 173.912 632.248 175.151Z" fill="white"/>
<path d="M610.036 187.01C607.443 187.277 604.907 187.525 602.372 187.83C601.533 187.925 600.694 188.135 599.874 188.383C599.416 188.516 599.226 188.383 599.016 188.002C596.9 184.284 594.764 180.566 592.629 176.867C592.457 176.562 592.267 176.276 592.076 175.914C594.574 173.245 596.557 170.194 598.463 166.953C602.353 173.702 606.223 180.375 610.036 187.01Z" fill="white"/>
<path d="M597.32 189.202C594.955 190.537 592.744 191.948 590.399 193.073C587.253 194.579 583.421 193.168 581.781 190.118C580.103 187.01 581.057 183.101 584.012 181.233C586.109 179.918 588.302 178.716 590.513 177.42C592.782 181.328 595.013 185.218 597.32 189.222V189.202Z" fill="white"/>
<path d="M614.27 187.277C612.954 187.524 612.325 186.819 611.715 185.732C607.864 178.945 603.936 172.177 600.009 165.427C599.742 164.989 599.742 164.665 600.009 164.264C600.333 163.807 600.638 163.311 600.867 162.796C601.706 160.909 603.955 161.042 604.909 162.758C607.959 168.23 611.143 173.626 614.27 179.059C615.204 180.661 616.119 182.281 617.053 183.883C617.53 184.665 617.721 185.446 617.225 186.285C616.729 187.105 615.967 187.372 615.032 187.296C614.766 187.296 614.518 187.296 614.251 187.296L614.27 187.277Z" fill="white"/>
<path d="M594.06 193.492C595.49 192.672 596.901 191.853 598.369 191.014C600.085 193.988 601.782 196.924 603.459 199.841C601.286 201.786 598.541 201.385 597.111 198.926C596.1 197.191 595.109 195.437 594.098 193.702C594.079 193.664 594.079 193.626 594.041 193.511L594.06 193.492Z" fill="white"/>
<path d="M610.742 168.725C612.401 167.772 614.708 168.458 615.795 170.174C616.919 171.966 616.462 174.349 614.689 175.551C613.373 173.282 612.058 170.994 610.742 168.725Z" fill="white"/>
<path d="M613.641 165.332C612.764 165.313 612.249 164.761 612.382 164.131C612.706 162.797 613.05 161.462 613.45 160.147C613.622 159.594 614.098 159.384 614.651 159.517C615.185 159.632 615.547 160.166 615.414 160.719C615.09 162.034 614.766 163.35 614.346 164.627C614.232 164.97 613.774 165.18 613.622 165.332H613.641Z" fill="white"/>
<path d="M618.978 169.813C618.692 169.565 618.235 169.355 618.14 169.031C618.044 168.688 618.14 168.04 618.407 167.887C619.608 167.086 620.866 166.381 622.143 165.714C622.601 165.466 623.058 165.714 623.325 166.152C623.592 166.591 623.611 167.124 623.192 167.391C621.934 168.192 620.599 168.917 619.303 169.66C619.245 169.698 619.169 169.679 619.112 169.698C619.074 169.736 619.036 169.775 618.998 169.813H618.978Z" fill="white"/>
<path d="M624.773 176.656C624.773 177.419 624.202 177.934 623.591 177.781C622.276 177.476 620.96 177.114 619.664 176.733C619.073 176.561 618.825 175.989 618.997 175.417C619.149 174.902 619.683 174.578 620.236 174.712C621.513 175.036 622.772 175.379 624.03 175.741C624.526 175.875 624.773 176.237 624.773 176.637V176.656Z" fill="white"/>
<path d="M499.416 407.947V411.088C499.416 412.991 498.94 414.492 497.989 415.59C497.037 416.674 495.646 417.216 493.815 417.216C491.971 417.216 490.572 416.674 489.62 415.59C488.683 414.492 488.215 412.991 488.215 411.088V407.947C488.215 406.044 488.683 404.55 489.62 403.467C490.572 402.383 491.971 401.841 493.815 401.841C495.646 401.841 497.037 402.383 497.989 403.467C498.94 404.55 499.416 406.044 499.416 407.947ZM496.715 407.947C496.715 406.746 496.48 405.846 496.012 405.246C495.543 404.631 494.811 404.323 493.815 404.323C492.82 404.323 492.088 404.631 491.619 405.246C491.151 405.846 490.916 406.746 490.916 407.947V411.088C490.916 412.289 491.151 413.196 491.619 413.811C492.088 414.426 492.82 414.734 493.815 414.734C494.811 414.734 495.543 414.426 496.012 413.811C496.48 413.196 496.715 412.289 496.715 411.088V407.947ZM505.536 411.505V416.996H502.901V402.061H507.886C509.395 402.061 510.551 402.449 511.357 403.225C512.177 403.986 512.587 405.011 512.587 406.3V407.244C512.587 408.094 512.404 408.84 512.037 409.485C511.671 410.129 511.144 410.619 510.456 410.956C511.657 413.006 512.682 415.019 513.531 416.996H510.522C509.79 415.166 508.919 413.336 507.908 411.505H505.536ZM507.886 404.477H505.536V409.089H507.886C508.531 409.089 509.021 408.928 509.358 408.606C509.709 408.269 509.885 407.815 509.885 407.244V406.3C509.885 405.743 509.709 405.304 509.358 404.982C509.021 404.645 508.531 404.477 507.886 404.477ZM526.168 416.03C525.802 416.249 525.195 416.506 524.345 416.798C523.511 417.077 522.53 417.216 521.402 417.216C520.128 417.216 519.059 416.952 518.196 416.425C517.346 415.898 516.702 415.173 516.263 414.251C515.823 413.328 515.604 412.274 515.604 411.088V407.947C515.604 406.732 515.823 405.67 516.263 404.762C516.702 403.84 517.354 403.122 518.217 402.61C519.096 402.097 520.194 401.841 521.512 401.841C522.156 401.841 522.822 401.914 523.511 402.061C524.199 402.193 524.953 402.442 525.773 402.808L524.96 405.114C524.243 404.836 523.621 404.638 523.093 404.521C522.581 404.389 522.068 404.323 521.556 404.323C520.414 404.323 519.587 404.653 519.074 405.311C518.562 405.956 518.305 406.834 518.305 407.947V411.088C518.305 412.142 518.562 413.006 519.074 413.68C519.601 414.353 520.421 414.69 521.534 414.69C521.871 414.69 522.237 414.661 522.632 414.602C523.027 414.543 523.408 414.463 523.774 414.36V411.088H521.358V408.782H526.168V416.03ZM537.469 416.996L536.547 414.075H531.429L530.507 416.996H527.893L532.879 402.061H535.207L540.215 416.996H537.469ZM532.857 409.507L532.176 411.659H535.778L535.097 409.507L533.999 405.729L532.857 409.507ZM542.71 416.996V402.061H545.126C546.282 403.569 547.38 405.165 548.42 406.849C549.46 408.518 550.404 410.239 551.253 412.01L551.056 407.552V402.061H553.582V416.996H551.166C550.228 415.151 549.255 413.299 548.244 411.439C547.249 409.565 546.187 407.801 545.06 406.146L545.235 411.286V416.996H542.71ZM560.338 416.996H557.702V402.061H560.338V416.996ZM567.709 414.778C569.408 414.778 570.257 414.148 570.257 412.889C570.257 412.376 570.125 411.974 569.862 411.681C569.613 411.388 569.144 411.132 568.456 410.912L566.655 410.319C564.503 409.616 563.426 408.203 563.426 406.08C563.426 404.85 563.807 403.84 564.568 403.049C565.345 402.244 566.553 401.841 568.192 401.841C568.881 401.841 569.562 401.922 570.235 402.083C570.909 402.229 571.626 402.471 572.387 402.808L571.575 405.07C570.872 404.792 570.272 404.594 569.774 404.477C569.291 404.345 568.793 404.279 568.28 404.279C567.607 404.279 567.072 404.404 566.677 404.653C566.296 404.887 566.106 405.319 566.106 405.948C566.106 406.417 566.238 406.805 566.501 407.112C566.779 407.405 567.233 407.654 567.863 407.859L569.664 408.452C570.748 408.818 571.56 409.353 572.102 410.056C572.658 410.744 572.937 411.659 572.937 412.801C572.937 414.119 572.519 415.188 571.685 416.008C570.85 416.813 569.54 417.216 567.753 417.216C567.05 417.216 566.318 417.135 565.557 416.974C564.81 416.798 563.99 416.506 563.097 416.096L563.91 413.833C564.73 414.185 565.425 414.434 565.996 414.58C566.582 414.712 567.153 414.778 567.709 414.778ZM584.48 414.47V416.996H575.826V402.061H584.261V404.587H578.462V408.167H583.602V410.693H578.462V414.47H584.48Z" fill="white"/>
<path d="M580.958 342.952C580.958 370.139 558.925 392.162 531.742 392.162C504.559 392.162 482.525 370.125 482.525 342.952C482.525 315.779 504.559 293.729 531.742 293.729C558.925 293.729 580.958 315.765 580.958 342.952Z" fill="white" fill-opacity="0.25" stroke="white" stroke-width="1.70447" stroke-miterlimit="10"/>
<path d="M531.953 373.355C529.32 373.355 526.67 373.355 524.036 373.355C521.32 373.355 519.592 371.298 520.036 368.615C520.892 363.463 525.057 359.859 530.274 359.859C532.167 359.859 534.093 359.793 535.936 360.138C540.216 360.945 543.425 364.648 543.919 368.977C544.183 371.314 542.454 373.323 540.101 373.339C537.385 373.372 534.653 373.339 531.937 373.339L531.953 373.355Z" fill="white"/>
<path d="M539.972 322.693C536.318 317.574 529.783 317.245 525.734 320.34C521.701 323.434 520.615 329.03 523.249 333.359C525.882 337.705 531.347 339.334 535.939 337.178C540.35 335.104 543.115 329.639 540.729 324.076C541.618 323.204 542.441 323.055 543.478 323.632C543.642 323.73 543.757 323.977 543.823 324.175C546.259 331.302 541.782 339.169 534.425 340.7C525.997 342.461 518.393 335.812 518.986 327.22C519.479 320.126 526.063 314.694 533.124 315.55C536.4 315.945 539.116 317.36 541.305 319.813C541.848 320.422 541.634 321.739 540.91 322.15C540.597 322.331 540.268 322.512 539.955 322.693H539.972Z" fill="white"/>
<path d="M512.993 365.687C511.215 365.687 509.437 365.604 507.676 365.703C505.553 365.835 503.693 364.205 504.417 361.506C505.339 358.066 508.055 355.597 511.61 355.35C513.486 355.218 515.412 355.07 517.256 355.679C519.758 356.486 521.486 358.148 522.44 360.601C522.589 360.963 522.589 361.226 522.259 361.506C521.074 362.559 520.169 363.827 519.511 365.275C519.363 365.588 519.198 365.687 518.869 365.687C516.91 365.67 514.951 365.687 512.993 365.687Z" fill="white"/>
<path d="M550.899 365.687C548.99 365.687 547.064 365.687 545.155 365.687C544.76 365.687 544.529 365.605 544.348 365.21C543.723 363.778 542.801 362.544 541.633 361.49C541.336 361.227 541.303 360.996 541.435 360.634C542.472 357.672 545.352 355.449 548.529 355.334C550.192 355.268 551.887 355.268 553.5 355.565C556.808 356.19 559.294 359.12 559.639 362.478C559.804 364.173 558.471 365.638 556.71 365.654C554.767 365.671 552.841 365.654 550.899 365.654V365.687Z" fill="white"/>
<path d="M536.694 326.297C537.583 325.787 538.422 325.293 539.278 324.799C540.76 327.268 540.496 332.239 536.612 335.054C532.81 337.802 527.493 336.881 524.794 333.013C522.111 329.161 523.115 323.878 527.016 321.244C530.818 318.693 536.151 319.697 538.603 323.466C537.715 323.976 536.842 324.487 535.97 324.98C533.32 322.544 530.67 322.248 528.366 324.091C526.325 325.737 525.798 328.634 527.115 330.889C528.448 333.161 531.213 334.099 533.666 333.128C536.299 332.091 537.435 329.54 536.694 326.281V326.297Z" fill="white"/>
<path d="M531.904 357.654C528.398 357.638 525.534 354.741 525.567 351.251C525.6 347.712 528.48 344.881 532.035 344.914C535.508 344.947 538.339 347.828 538.339 351.301C538.339 354.84 535.442 357.687 531.904 357.671V357.654Z" fill="white"/>
<path d="M555.212 348.404C555.212 351.087 553.006 353.276 550.34 353.276C547.657 353.276 545.435 351.038 545.451 348.338C545.468 345.655 547.673 343.499 550.356 343.516C553.056 343.516 555.212 345.705 555.212 348.404Z" fill="white"/>
<path d="M513.569 343.531C516.269 343.531 518.458 345.704 518.458 348.387C518.458 351.086 516.236 353.325 513.553 353.292C510.87 353.275 508.697 351.07 508.697 348.387C508.697 345.704 510.886 343.531 513.569 343.531Z" fill="white"/>
<path d="M534.589 325.788C533.552 326.38 532.564 326.956 531.56 327.532C530.967 327.878 530.819 328.24 531.066 328.668C531.313 329.096 531.708 329.145 532.301 328.816C533.305 328.257 534.292 327.681 535.296 327.105C535.955 328.882 535.049 330.89 533.272 331.697C531.461 332.52 529.338 331.812 528.367 330.084C527.396 328.355 527.922 326.166 529.568 325.064C531.181 323.977 533.338 324.273 534.589 325.804V325.788Z" fill="white"/>
<path d="M547.657 316.242C547.509 317.032 547.377 317.707 547.245 318.365C547.114 319.106 547.361 319.551 548.052 319.814C548.694 320.061 549.352 320.275 550.126 320.538C548.727 321.345 547.459 322.085 546.175 322.81C546.077 322.875 545.896 322.843 545.764 322.81C544.826 322.513 543.888 322.201 542.867 321.871C543.098 320.818 543.312 319.781 543.542 318.744C543.558 318.645 543.674 318.53 543.772 318.481C545.007 317.756 546.258 317.049 547.64 316.242H547.657Z" fill="white"/>
<path d="M316.247 506.713H311.239V512.445H308.604V497.51H316.906V500.036H311.239V504.187H316.247V506.713ZM322.328 512.445H319.693V497.51H322.328V512.445ZM333.565 512.445L330.446 506.976L327.481 512.445H324.714L329.085 504.692L324.956 497.51H327.943L330.82 502.518L333.521 497.51H336.289L332.182 504.824L336.552 512.445H333.565ZM345.986 512.445H343.351V497.51H345.986V512.445ZM348.328 500.036V497.51H359.31V500.036H355.137V512.445H352.501V500.036H348.328Z" fill="white"/>
<path d="M377.701 434.993C377.701 462.18 355.667 484.203 328.484 484.203C301.301 484.203 279.268 462.166 279.268 434.993C279.268 407.82 301.301 385.77 328.484 385.77C355.667 385.77 377.701 407.806 377.701 434.993Z" fill="white" fill-opacity="0.25" stroke="white" stroke-width="1.70447" stroke-miterlimit="10"/>
<path d="M331.053 428.968C329.141 430.897 327.328 432.692 325.499 434.522C325.399 434.438 325.283 434.322 325.167 434.206C323.271 432.31 321.376 430.431 319.497 428.519C319.281 428.303 319.064 428.22 318.765 428.22C317.119 428.22 315.473 428.22 313.827 428.22C313.444 428.22 313.162 428.103 312.879 427.837C311.765 426.707 310.634 425.609 309.537 424.462C309.321 424.246 309.171 423.88 309.171 423.581C309.138 421.751 309.171 419.922 309.154 418.093C309.154 417.711 309.221 417.378 309.603 417.212C310.019 417.029 310.302 417.245 310.584 417.511C312.064 419.008 313.577 420.488 315.04 421.984C315.273 422.234 315.523 422.284 315.839 422.317C316.67 422.417 317.302 422.167 317.784 421.485C317.817 421.436 317.867 421.386 317.917 421.352C318.782 420.82 318.865 419.989 318.748 419.108C318.732 418.941 318.615 418.775 318.499 418.659C317.003 417.146 315.506 415.649 313.993 414.153C313.71 413.87 313.461 413.587 313.644 413.138C313.827 412.706 314.209 412.689 314.608 412.689C316.404 412.689 318.2 412.689 320.012 412.706C320.311 412.706 320.677 412.856 320.893 413.072C322.041 414.186 323.171 415.317 324.285 416.464C324.485 416.68 324.635 417.046 324.651 417.345C324.684 418.991 324.668 420.637 324.651 422.284C324.651 422.583 324.734 422.799 324.951 423.015C326.846 424.894 328.742 426.79 330.637 428.685C330.754 428.802 330.936 428.868 331.053 428.935V428.968Z" fill="white"/>
<path d="M331.668 440.707C333.497 438.878 335.309 437.065 337.139 435.236C337.238 435.336 337.355 435.436 337.471 435.569C339.35 437.448 341.246 439.327 343.108 441.222C343.341 441.472 343.59 441.555 343.906 441.538C345.519 441.538 347.132 441.538 348.745 441.538C349.144 441.538 349.443 441.655 349.726 441.937C350.823 443.051 351.937 444.165 353.051 445.263C353.334 445.545 353.45 445.845 353.45 446.244C353.45 448.04 353.45 449.852 353.45 451.648C353.45 452.047 353.384 452.396 352.985 452.562C352.569 452.729 352.286 452.512 352.02 452.23C350.557 450.75 349.077 449.303 347.614 447.823C347.364 447.557 347.098 447.474 346.733 447.441C345.935 447.358 345.319 447.574 344.87 448.222C344.787 448.339 344.687 448.439 344.571 448.522C343.956 448.954 343.773 449.519 343.823 450.268C343.856 450.683 343.956 450.983 344.238 451.265C345.718 452.712 347.165 454.175 348.612 455.638C348.894 455.921 349.11 456.204 348.927 456.619C348.761 457.035 348.412 457.085 348.013 457.085C346.201 457.085 344.388 457.085 342.559 457.068C342.26 457.068 341.894 456.919 341.678 456.703C340.514 455.589 339.383 454.458 338.286 453.311C338.086 453.094 337.937 452.729 337.92 452.429C337.887 450.833 337.887 449.237 337.92 447.624C337.92 447.208 337.787 446.909 337.504 446.626C335.642 444.797 333.796 442.935 331.951 441.089C331.834 440.973 331.718 440.856 331.635 440.757L331.668 440.707Z" fill="white"/>
<path d="M329.822 440.49C328.425 439.094 327.112 437.78 325.682 436.35C325.798 436.284 325.964 436.234 326.081 436.117C331.402 430.796 336.722 425.476 342.043 420.171C342.293 419.922 342.409 419.689 342.392 419.34C342.359 418.675 342.392 418.01 342.392 417.361C342.392 416.929 342.542 416.646 342.941 416.447C345.302 415.283 347.647 414.102 349.991 412.922C350.557 412.639 350.756 412.672 351.222 413.121C351.87 413.77 352.502 414.418 353.15 415.05C353.5 415.383 353.566 415.732 353.333 416.164C352.136 418.525 350.956 420.886 349.792 423.248C349.592 423.63 349.326 423.83 348.877 423.813C348.195 423.796 347.53 423.813 346.849 423.813C346.533 423.813 346.317 423.896 346.084 424.129C340.763 429.45 335.442 434.771 330.138 440.091C330.005 440.224 329.922 440.391 329.822 440.507V440.49Z" fill="white"/>
<path d="M319.895 439.376C322.206 441.687 324.517 443.982 326.845 446.31C326.795 446.36 326.729 446.443 326.662 446.509C323.719 449.452 320.776 452.412 317.816 455.355C316.32 456.835 314.557 457.434 312.512 456.818C309.353 455.871 308.172 452.046 310.151 449.253C310.351 448.97 310.567 448.721 310.799 448.471C313.792 445.478 316.769 442.485 319.762 439.492C319.812 439.442 319.878 439.393 319.911 439.359L319.895 439.376Z" fill="white"/>
<path d="M321.06 438.18C321.542 437.698 322.091 437.133 322.656 436.6C323.038 436.251 323.421 436.285 323.82 436.7C325.266 438.147 326.713 439.593 328.16 441.04C328.609 441.489 329.074 441.955 329.523 442.42C329.922 442.836 329.939 443.202 329.523 443.634C329.008 444.166 328.492 444.681 327.993 445.18C325.665 442.852 323.371 440.541 321.043 438.197L321.06 438.18Z" fill="white"/>
<path d="M88.8588 417.103V419.629H80.2052V404.694H88.6392V407.219H82.8408V410.8H87.9803V413.325H82.8408V417.103H88.8588ZM95.2312 417.411C96.9297 417.411 97.779 416.781 97.779 415.522C97.779 415.009 97.6472 414.607 97.3836 414.314C97.1347 414.021 96.6661 413.765 95.9779 413.545L94.1769 412.952C92.0245 412.249 90.9483 410.836 90.9483 408.713C90.9483 407.483 91.329 406.473 92.0904 405.682C92.8664 404.877 94.0744 404.474 95.7144 404.474C96.4026 404.474 97.0834 404.555 97.757 404.716C98.4305 404.862 99.148 405.104 99.9094 405.44L99.0968 407.703C98.3939 407.424 97.7936 407.227 97.2958 407.11C96.8126 406.978 96.3147 406.912 95.8022 406.912C95.1287 406.912 94.5942 407.036 94.1989 407.285C93.8182 407.52 93.6278 407.952 93.6278 408.581C93.6278 409.05 93.7596 409.438 94.0232 409.745C94.3014 410.038 94.7553 410.287 95.3849 410.492L97.1859 411.085C98.2695 411.451 99.0821 411.986 99.6239 412.688C100.18 413.377 100.459 414.292 100.459 415.434C100.459 416.752 100.041 417.821 99.2066 418.641C98.372 419.446 97.0615 419.849 95.2751 419.849C94.5723 419.849 93.8402 419.768 93.0788 419.607C92.332 419.431 91.512 419.138 90.6188 418.728L91.4315 416.466C92.2515 416.818 92.947 417.066 93.518 417.213C94.1037 417.345 94.6748 417.411 95.2312 417.411ZM105.369 413.721C105.369 414.79 105.603 415.668 106.072 416.356C106.54 417.03 107.309 417.367 108.378 417.367C108.817 417.367 109.271 417.308 109.74 417.191C110.223 417.074 110.816 416.876 111.519 416.598L112.332 418.882C111.541 419.234 110.809 419.482 110.135 419.629C109.476 419.775 108.839 419.849 108.224 419.849C106.994 419.849 105.962 419.585 105.127 419.058C104.308 418.531 103.693 417.806 103.283 416.883C102.873 415.961 102.668 414.907 102.668 413.721V410.58C102.668 409.394 102.873 408.34 103.283 407.417C103.693 406.495 104.308 405.777 105.127 405.265C105.962 404.738 106.994 404.474 108.224 404.474C108.825 404.474 109.447 404.547 110.091 404.694C110.736 404.825 111.438 405.06 112.2 405.397L111.387 407.725C110.714 407.446 110.15 407.249 109.696 407.132C109.242 407.015 108.803 406.956 108.378 406.956C107.309 406.956 106.54 407.293 106.072 407.966C105.603 408.64 105.369 409.511 105.369 410.58V413.721ZM123.032 419.629L122.109 416.708H116.992L116.069 419.629H113.456L118.441 404.694H120.769L125.777 419.629H123.032ZM118.419 412.139L117.739 414.292H121.341L120.66 412.139L119.561 408.362L118.419 412.139ZM136.882 417.103V419.629H128.272V404.694H130.908V417.103H136.882ZM147.355 419.629L146.432 416.708H141.315L140.392 419.629H137.779L142.764 404.694H145.092L150.1 419.629H147.355ZM142.742 412.139L142.061 414.292H145.663L144.983 412.139L143.884 408.362L142.742 412.139ZM149.379 407.219V404.694H160.361V407.219H156.187V419.629H153.552V407.219H149.379ZM171.372 417.103V419.629H162.719V404.694H171.153V407.219H165.354V410.8H170.494V413.325H165.354V417.103H171.372ZM181.527 419.629H178.891V404.694H181.527V419.629ZM183.868 407.219V404.694H194.85V407.219H190.677V419.629H188.041V407.219H183.868Z" fill="white"/>
<path d="M182.48 343.378C182.48 370.564 160.446 392.587 133.263 392.587C106.08 392.587 84.0469 370.551 84.0469 343.378C84.0469 316.205 106.08 294.154 133.263 294.154C160.446 294.154 182.48 316.191 182.48 343.378Z" fill="white" fill-opacity="0.25" stroke="white" stroke-width="1.70447" stroke-miterlimit="10"/>
<path d="M105.838 357.017C105.838 355.56 106.402 354.417 107.389 353.445C111.008 349.842 114.596 346.238 118.216 342.634C119.532 341.318 120.832 340.018 122.148 338.702C124.279 336.571 127.115 336.571 129.246 338.702C130.515 339.971 131.784 341.24 133.069 342.509C133.805 343.23 134.385 343.245 135.121 342.509C136.954 340.692 138.772 338.874 140.589 337.041C141.247 336.383 141.169 335.803 140.386 335.317C139.618 334.847 138.834 334.377 138.051 333.923C137.095 333.359 136.625 332.529 136.798 331.416C136.97 330.351 137.644 329.74 138.678 329.458C144.71 327.813 150.742 326.167 156.79 324.522C158.811 323.974 160.393 325.509 159.845 327.531C158.216 333.594 156.555 339.642 154.91 345.69C154.612 346.771 153.938 347.444 152.826 347.57C151.76 347.695 150.977 347.194 150.444 346.269C150.006 345.517 149.551 344.781 149.097 344.029C148.564 343.151 148 343.073 147.279 343.794C144.036 347.037 140.809 350.28 137.565 353.508C136.014 355.059 133.852 355.435 132.003 354.464C131.486 354.197 131.016 353.806 130.593 353.398C129.324 352.176 128.102 350.907 126.848 349.669C126.018 348.839 125.47 348.823 124.639 349.669C121.13 353.179 117.62 356.704 114.095 360.214C112.168 362.125 109.347 362.235 107.436 360.464C106.418 359.524 105.901 358.349 105.885 357.033L105.838 357.017Z" fill="white"/>
<path d="M426.709 242.789L502.75 302.736L503.93 301.239L427.889 241.292L426.709 242.789Z" fill="white"/>
<path d="M235.473 242.387L159.432 302.334L158.251 300.837L234.293 240.89L235.473 242.387Z" fill="white"/>
<path d="M327.982 284.784L327.443 385.281L329.35 385.291L329.889 284.794L327.982 284.784Z" fill="white"/>
<path d="M202.808 171.175L100.125 171.178L100.098 172.995L202.781 172.993L202.808 171.175Z" fill="white"/>
<path d="M561.597 171.175L458.914 171.178L458.887 172.995L561.57 172.993L561.597 171.175Z" fill="white"/>
</svg>
