<svg width="45" height="45" viewBox="0 0 45 45" fill="none" xmlns="http://www.w3.org/2000/svg">
<path fill-rule="evenodd" clip-rule="evenodd" d="M32.6039 27.0725C32.0443 26.7925 29.2933 25.4392 28.7804 25.2526C28.2675 25.066 27.8946 24.9726 27.5215 25.5326C27.1485 26.0926 26.0762 27.3525 25.7497 27.7258C25.4234 28.0991 25.097 28.1459 24.5375 27.8658C23.9779 27.5859 22.175 26.9951 20.0378 25.0894C18.3744 23.6063 17.2514 21.7744 16.925 21.2144C16.5986 20.6544 16.8902 20.3517 17.1704 20.0728C17.422 19.8223 17.7299 19.4195 18.0096 19.0929C18.2894 18.7662 18.3827 18.5329 18.5692 18.1596C18.7557 17.7863 18.6625 17.4596 18.5225 17.1796C18.3827 16.8996 17.2637 14.1464 16.7974 13.0264C16.3433 11.9357 15.8819 12.0833 15.5385 12.0662C15.2124 12.0499 14.8391 12.0465 14.466 12.0465C14.093 12.0465 13.4869 12.1865 12.9739 12.7464C12.461 13.3064 11.0156 14.6598 11.0156 17.4129C11.0156 20.1661 13.0206 22.826 13.3003 23.1994C13.5801 23.5727 17.2459 29.2227 22.8589 31.6456C24.1939 32.222 25.2362 32.5661 26.0487 32.824C27.3892 33.2496 28.609 33.1896 29.5731 33.0456C30.6481 32.885 32.8836 31.6923 33.3499 30.3857C33.8161 29.0791 33.8161 27.9591 33.6763 27.7258C33.5364 27.4925 33.1634 27.3525 32.6039 27.0725ZM22.3939 41.008H22.3864C19.0465 41.0067 15.7707 40.1099 12.913 38.4145C12.4781 38.1564 11.9579 38.0834 11.4688 38.2117L10.6808 38.4183C8.24011 39.0584 6.02196 36.8161 6.6884 34.3825L6.84947 33.7944C6.98942 33.2833 6.90852 32.737 6.62646 32.2885C4.76333 29.3259 3.77933 25.9018 3.78072 22.386C3.78481 12.1269 12.1345 3.78035 22.4013 3.78035C27.3728 3.78229 32.046 5.72029 35.5602 9.23724C39.0743 12.7543 41.0086 17.4293 41.0066 22.4011C41.0024 32.661 32.6528 41.008 22.3939 41.008ZM38.235 6.56479C34.007 2.33327 28.3844 0.00180054 22.3939 -0.00056839C10.0508 -0.00056839 0.00494988 10.0414 1.89064e-06 22.3846C-0.00129022 25.5443 0.659727 28.6437 1.92952 31.4965C2.53722 32.8618 2.76701 34.3875 2.37229 35.8289C1.23457 39.9833 5.02119 43.8112 9.18773 42.7187L9.47072 42.6445C10.892 42.2718 12.3893 42.4869 13.7447 43.0542C16.4675 44.1936 19.4056 44.7878 22.3849 44.7891H22.3941H22.3942C34.7361 44.7891 44.7828 34.7458 44.7878 22.4025C44.7901 16.4208 42.463 10.7962 38.235 6.56479Z" fill="white"/>
</svg>



